<?xml version="1.0" encoding="utf-8"?>
<!-- Generator: Adobe Illustrator 27.6.1, SVG Export Plug-In . SVG Version: 6.00 Build 0)  -->
<svg version="1.1" id="Layer_1" xmlns="http://www.w3.org/2000/svg" xmlns:xlink="http://www.w3.org/1999/xlink" x="0px" y="0px"
	 viewBox="0 0 1080 1080" style="enable-background:new 0 0 1080 1080;" xml:space="preserve">
<style type="text/css">
	.st0{display:none;fill:#FFFFFF;}
	.st1{fill:#FFFFFF;}
	.st2{fill:#EBEBEB;}
</style>
<g id="_x39_47b4b81-a50e-400b-bf12-68003ec5d771" transform="matrix(1 0 0 1 540 540)">
	<rect x="-540" y="-540" vector-effect="non-scaling-stroke" class="st0" width="1080" height="1080"/>
</g>
<g id="cbb60a74-ba53-45f9-bc76-26cf82e365c4" transform="matrix(1 0 0 1 540 540)">
</g>
<g transform="matrix(2.22 0 0 2.22 540 540)">
	<path class="st1" d="M-127.6-144.7l23.2,260.4l104.2,28.9l104.5-29l23.2-260.4H-127.6z M-0.2,89.4l-65.3-18.1L-70,21.1h32.1
		l2.3,25.5l35.5,9.6l0,0v0l35.5-9.6l3.7-41.4H-0.1v0h-71.3l-7.9-88l-0.8-8.6h79.9v0h79.9l-0.8,8.6l-1.5,16.2L77-59.5H-0.1v0h-45
		l2.9,32.7h42.1v0h74.2l-0.8,8.6l-7.5,84.1l-0.5,5.4L0.1,89.3L-0.2,89.4L-0.2,89.4L-0.2,89.4z"/>
</g>
<g transform="matrix(2.22 0 0 2.22 655.54 539.06)">
	<polygon class="st1" points="-12.9,5.6 -16.6,47 -52.1,56.6 -52.1,5.6 	"/>
	<polygon class="st1" points="52.1,-122.9 32.3,99.5 -52.1,123 -52.1,89.8 -52,89.8 13.2,71.7 13.7,66.3 21.2,-17.8 22,-26.4 
		-52.1,-26.4 -52.1,-59.1 24.9,-59.1 25.6,-66.2 27,-82.4 27.8,-91 -52.1,-91 -52.1,-122.9 	"/>
</g>
<g transform="matrix(2.22 0 0 2.22 451.27 537.77)">
	<path vector-effect="non-scaling-stroke" class="st2" d="M39.9,90.4L39.9,90.4L39.9,90.4L39.9,90.4l0.2,0v0L39.9,90.4z M39.9-25.8
		L39.9-25.8l0.2,0v0H39.9z M39.9-90.4L39.9-90.4l0.2,0v0H39.9z"/>
</g>
<g transform="matrix(2.22 0 0 2.22 628.4 537.76)">
	<path vector-effect="non-scaling-stroke" class="st1" d="M-40-58.5L-40-58.5L-40-58.5L-40-58.5L-40-58.5z M-40,6.2L-40,6.2L-40,6.2
		L-40,6.2L-40,6.2z M-40,57.2L-40,57.2L-40,57.2L-40,57.2z M-40,90.4L-40,90.4L-40,90.4L-40,90.4z"/>
</g>
</svg>
