<?xml version="1.0" encoding="UTF-8" standalone="no" ?>
<!DOCTYPE svg PUBLIC "-//W3C//DTD SVG 1.1//EN" "http://www.w3.org/Graphics/SVG/1.1/DTD/svg11.dtd">
<svg xmlns="http://www.w3.org/2000/svg" xmlns:xlink="http://www.w3.org/1999/xlink" version="1.1" width="1080" height="1080" viewBox="0 0 1080 1080" xml:space="preserve">
<desc>Created with Fabric.js 5.2.4</desc>
<defs>
</defs>
<g transform="matrix(1 0 0 1 540 540)" id="10c7f428-8e68-4075-8327-06c6c48656e6"  >
</g>
<g transform="matrix(1 0 0 1 540 540)" id="9ddc8ec5-d314-4618-a720-ca2b4d47cb76"  >
<rect style="stroke: none; stroke-width: 1; stroke-dasharray: none; stroke-linecap: butt; stroke-dashoffset: 0; stroke-linejoin: miter; stroke-miterlimit: 4; fill: rgb(255,255,255); fill-rule: nonzero; opacity: 1; visibility: hidden;" vector-effect="non-scaling-stroke"  x="-540" y="-540" rx="0" ry="0" width="1080" height="1080" />
</g>
<g transform="matrix(21.63 0 0 21.63 635.8 582.52)"  >
<path style="stroke: none; stroke-width: 1; stroke-dasharray: none; stroke-linecap: butt; stroke-dashoffset: 0; stroke-linejoin: round; stroke-miterlimit: 2; fill: rgb(255,255,255); fill-rule: nonzero; opacity: 1;" vector-effect="non-scaling-stroke"  transform=" translate(-250.78, 333.37)" d="M 243.13 -333.72 C 243.236 -335.61100000000005 244.162 -337.27700000000004 245.559 -338.458 C 246.929 -339.61800000000005 248.773 -340.32700000000006 250.785 -340.32700000000006 C 252.795 -340.32700000000006 254.639 -339.61800000000005 256.01 -338.458 C 257.406 -337.27700000000004 258.332 -335.61100000000005 258.43899999999996 -333.72200000000004 C 258.54499999999996 -331.77900000000005 257.76399999999995 -329.97400000000005 256.39399999999995 -328.636 C 254.99699999999996 -327.27500000000003 253.00999999999996 -326.42100000000005 250.78499999999994 -326.42100000000005 C 248.55999999999992 -326.42100000000005 246.56899999999993 -327.27500000000003 245.17299999999994 -328.636 C 243.80199999999994 -329.97400000000005 243.02299999999994 -331.779 243.12999999999994 -333.72 z" stroke-linecap="round" />
</g>
<g transform="matrix(11.1 0 0 11.1 638.39 582.52)"  >
<path style="stroke: none; stroke-width: 1; stroke-dasharray: none; stroke-linecap: butt; stroke-dashoffset: 0; stroke-linejoin: round; stroke-miterlimit: 2; fill: rgb(38,87,135); fill-rule: nonzero; opacity: 1;" vector-effect="non-scaling-stroke"  transform=" translate(-250.78, 333.37)" d="M 243.13 -333.72 C 243.236 -335.61100000000005 244.162 -337.27700000000004 245.559 -338.458 C 246.929 -339.61800000000005 248.773 -340.32700000000006 250.785 -340.32700000000006 C 252.795 -340.32700000000006 254.639 -339.61800000000005 256.01 -338.458 C 257.406 -337.27700000000004 258.332 -335.61100000000005 258.43899999999996 -333.72200000000004 C 258.54499999999996 -331.77900000000005 257.76399999999995 -329.97400000000005 256.39399999999995 -328.636 C 254.99699999999996 -327.27500000000003 253.00999999999996 -326.42100000000005 250.78499999999994 -326.42100000000005 C 248.55999999999992 -326.42100000000005 246.56899999999993 -327.27500000000003 245.17299999999994 -328.636 C 243.80199999999994 -329.97400000000005 243.02299999999994 -331.779 243.12999999999994 -333.72 z" stroke-linecap="round" />
</g>
<g transform="matrix(11.1 0 0 11.1 540 540)"  >
<path style="stroke: none; stroke-width: 1; stroke-dasharray: none; stroke-linecap: butt; stroke-dashoffset: 0; stroke-linejoin: round; stroke-miterlimit: 2; fill: rgb(234,118,0); fill-rule: nonzero; opacity: 1;" vector-effect="non-scaling-stroke"  transform=" translate(-241.92, 336.58)" d="M 230.94 -329.89 C 230.953 -329.15 231.189 -327.712 231.543 -326.589 C 232.287 -324.212 233.549 -322.013 235.305 -320.075 C 237.107 -318.08299999999997 239.326 -316.483 241.889 -315.347 C 244.583 -314.154 247.502 -313.546 250.53400000000002 -313.551 C 253.561 -313.555 256.48 -314.175 259.17400000000004 -315.377 C 261.737 -316.524 263.954 -318.13100000000003 265.75300000000004 -320.124 C 267.50800000000004 -322.07000000000005 268.76800000000003 -324.273 269.51400000000007 -326.65000000000003 C 269.88900000000007 -327.85100000000006 270.1260000000001 -329.07000000000005 270.22100000000006 -330.293 C 270.3140000000001 -331.498 270.27500000000003 -332.705 270.10400000000004 -333.911 C 269.77000000000004 -336.261 268.95700000000005 -338.466 267.70500000000004 -340.476 C 266.56000000000006 -342.323 265.08400000000006 -343.94 263.32900000000006 -345.301 L 263.3330000000001 -345.304 L 245.62200000000007 -358.90299999999996 C 245.60600000000008 -358.91499999999996 245.59300000000007 -358.92799999999994 245.57600000000008 -358.93899999999996 C 244.41400000000007 -359.83099999999996 242.46000000000006 -359.828 241.18200000000007 -358.93399999999997 C 239.89000000000007 -358.03 239.74200000000008 -356.53499999999997 240.89200000000008 -355.592 L 240.88700000000009 -355.587 L 248.2740000000001 -349.58 L 225.75900000000007 -349.556 L 225.72900000000007 -349.556 C 223.86800000000008 -349.554 222.07900000000006 -348.33299999999997 221.72500000000008 -346.78999999999996 C 221.36100000000008 -345.21799999999996 222.62500000000009 -343.914 224.5600000000001 -343.907 L 224.5570000000001 -343.9 L 235.9690000000001 -343.92199999999997 L 215.6050000000001 -328.29099999999994 C 215.5790000000001 -328.27199999999993 215.5510000000001 -328.25199999999995 215.5270000000001 -328.23299999999995 C 213.6060000000001 -326.76199999999994 212.9850000000001 -324.316 214.1950000000001 -322.768 C 215.42300000000012 -321.19399999999996 218.0340000000001 -321.191 219.9750000000001 -322.75899999999996 L 231.0890000000001 -331.85499999999996 C 231.0890000000001 -331.85499999999996 230.9270000000001 -330.62699999999995 230.9400000000001 -329.89 z M 259.499 -325.77799999999996 C 257.209 -323.44499999999994 254.00300000000001 -322.12199999999996 250.53400000000002 -322.11499999999995 C 247.06000000000003 -322.109 243.854 -323.41999999999996 241.56400000000002 -325.74899999999997 C 240.44500000000002 -326.88399999999996 239.62300000000002 -328.18999999999994 239.116 -329.58099999999996 C 238.619 -330.948 238.42600000000002 -332.39899999999994 238.554 -333.86299999999994 C 238.675 -335.2939999999999 239.101 -336.65899999999993 239.781 -337.89399999999995 C 240.449 -339.10799999999995 241.369 -340.2049999999999 242.505 -341.1329999999999 C 244.731 -342.94699999999995 247.565 -343.9289999999999 250.529 -343.93299999999994 C 253.496 -343.93699999999995 256.328 -342.96399999999994 258.556 -341.15599999999995 C 259.69 -340.23199999999997 260.609 -339.13899999999995 261.277 -337.92699999999996 C 261.96 -336.693 262.383 -335.33299999999997 262.509 -333.89799999999997 C 262.635 -332.436 262.442 -330.98699999999997 261.945 -329.61899999999997 C 261.437 -328.224 260.618 -326.91799999999995 259.49899999999997 -325.77799999999996 z" stroke-linecap="round" />
</g>
</svg>