<?xml version="1.0" encoding="UTF-8" standalone="no" ?>
<!DOCTYPE svg PUBLIC "-//W3C//DTD SVG 1.1//EN" "http://www.w3.org/Graphics/SVG/1.1/DTD/svg11.dtd">
<svg xmlns="http://www.w3.org/2000/svg" xmlns:xlink="http://www.w3.org/1999/xlink" version="1.1" width="1080" height="1080" viewBox="0 0 1080 1080" xml:space="preserve">
<desc>Created with Fabric.js 5.2.4</desc>
<defs>
</defs>
<g transform="matrix(1 0 0 1 540 540)" id="6642c65f-2511-428e-8481-94d6d6593874"  >
<rect style="stroke: none; stroke-width: 1; stroke-dasharray: none; stroke-linecap: butt; stroke-dashoffset: 0; stroke-linejoin: miter; stroke-miterlimit: 4; fill: rgb(255,255,255); fill-rule: nonzero; opacity: 1; visibility: hidden;" vector-effect="non-scaling-stroke"  x="-540" y="-540" rx="0" ry="0" width="1080" height="1080" />
</g>
<g transform="matrix(1 0 0 1 540 540)" id="b118fe84-4d93-4597-971c-b5e96983ccf8"  >
</g>
<g transform="matrix(1 0 0 1 540 540)"  >
<g style="" vector-effect="non-scaling-stroke"   >
		<g transform="matrix(3.13 0 0 3.13 0 0)"  >
<path style="stroke: none; stroke-width: 1; stroke-dasharray: none; stroke-linecap: butt; stroke-dashoffset: 0; stroke-linejoin: miter; stroke-miterlimit: 4; fill: rgb(86,61,124); fill-rule: nonzero; opacity: 1;" vector-effect="non-scaling-stroke"  transform=" translate(-128, -128)" d="M 0 222.991225 C 0 241.223474 14.7785318 256 33.0087747 256 L 222.991225 256 C 241.223474 256 256 241.221468 256 222.991225 L 256 33.0087747 C 256 14.7765263 241.221468 0 222.991225 0 L 33.0087747 0 C 14.7765263 0 0 14.7785318 0 33.0087747 L 0 222.991225 Z" stroke-linecap="round" />
</g>
		<g transform="matrix(3.13 0 0 3.13 28.07 0)"  >
<path style="stroke: none; stroke-width: 1; stroke-dasharray: none; stroke-linecap: butt; stroke-dashoffset: 0; stroke-linejoin: miter; stroke-miterlimit: 4; fill: rgb(255,255,255); fill-rule: nonzero; opacity: 1;" vector-effect="non-scaling-stroke"  transform=" translate(-136.98, -128)" d="M 106.157563 113.238095 L 106.157563 76.9845938 L 138.069328 76.9845938 C 141.108559 76.9845938 144.039202 77.2378593 146.861345 77.7443978 C 149.683488 78.2509362 152.179961 79.1554557 154.35084 80.4579832 C 156.52172 81.7605107 158.258397 83.5695496 159.560924 85.8851541 C 160.863452 88.2007585 161.514706 91.1675823 161.514706 94.7857143 C 161.514706 101.298352 159.560944 106.001853 155.653361 108.896359 C 151.745779 111.790864 146.752832 113.238095 140.67437 113.238095 L 106.157563 113.238095 L 106.157563 113.238095 Z M 72.07493 50.5 L 72.07493 205.5 L 147.186975 205.5 C 154.133788 205.5 160.899594 204.631661 167.484594 202.894958 C 174.069594 201.158255 179.93088 198.480877 185.068627 194.862745 C 190.206375 191.244613 194.294803 186.577293 197.334034 180.860644 C 200.373264 175.143996 201.892857 168.37819 201.892857 160.563025 C 201.892857 150.866431 199.541107 142.581033 194.837535 135.706583 C 190.133963 128.832132 183.00635 124.020088 173.454482 121.270308 C 180.401295 117.941627 185.647508 113.672295 189.193277 108.462185 C 192.739047 103.252075 194.511905 96.7395349 194.511905 88.9243697 C 194.511905 81.6881057 193.317939 75.6097352 190.929972 70.6890756 C 188.542005 65.7684161 185.177193 61.8247114 180.835434 58.8578431 C 176.493676 55.8909749 171.283644 53.756309 165.205182 52.4537815 C 159.12672 51.151254 152.397096 50.5 145.016106 50.5 L 72.07493 50.5 L 72.07493 50.5 Z M 106.157563 179.015406 L 106.157563 136.466387 L 143.279412 136.466387 C 150.660401 136.466387 156.594049 138.166883 161.080532 141.567927 C 165.567016 144.968971 167.810224 150.649353 167.810224 158.609244 C 167.810224 162.661552 167.122789 165.990183 165.747899 168.595238 C 164.373009 171.200293 162.527789 173.262597 160.212185 174.782213 C 157.89658 176.301828 155.219203 177.387252 152.179972 178.038515 C 149.140741 178.689779 145.956833 179.015406 142.628151 179.015406 L 106.157563 179.015406 L 106.157563 179.015406 Z" stroke-linecap="round" />
</g>
</g>
</g>
</svg>