<?xml version="1.0" encoding="UTF-8" standalone="no" ?>
<!DOCTYPE svg PUBLIC "-//W3C//DTD SVG 1.1//EN" "http://www.w3.org/Graphics/SVG/1.1/DTD/svg11.dtd">
<svg xmlns="http://www.w3.org/2000/svg" xmlns:xlink="http://www.w3.org/1999/xlink" version="1.1" width="1080" height="1080" viewBox="0 0 1080 1080" xml:space="preserve">
<desc>Created with Fabric.js 5.2.4</desc>
<defs>
</defs>
<g transform="matrix(1 0 0 1 540 540)" id="af145ce2-7076-48f4-b5d7-e3cde944223a"  >
<rect style="stroke: none; stroke-width: 1; stroke-dasharray: none; stroke-linecap: butt; stroke-dashoffset: 0; stroke-linejoin: miter; stroke-miterlimit: 4; fill: rgb(255,255,255); fill-rule: nonzero; opacity: 1; visibility: hidden;" vector-effect="non-scaling-stroke"  x="-540" y="-540" rx="0" ry="0" width="1080" height="1080" />
</g>
<g transform="matrix(1 0 0 1 540 540)" id="eae51dea-de6d-4dab-b95e-c0597128f546"  >
</g>
<g transform="matrix(0.23 0 0 0.23 540 540)"  >
<g style="" vector-effect="non-scaling-stroke"   >
		<g transform="matrix(1 0 0 1 0 0)"  >
<circle style="stroke: none; stroke-width: 1; stroke-dasharray: none; stroke-linecap: butt; stroke-dashoffset: 0; stroke-linejoin: miter; stroke-miterlimit: 4; fill: rgb(125,42,231); fill-rule: nonzero; opacity: 1;" vector-effect="non-scaling-stroke"  cx="0" cy="0" r="950" />
</g>
		<g transform="matrix(1 0 0 1 0 0)"  >
<radialGradient id="SVGID_a_3" gradientUnits="userSpaceOnUse" gradientTransform="matrix(955.99 -1116.01 1116.01 955.99 -582.99 734.01)"  cx="0" cy="0" r="1" fx="0" fy="0">
<stop offset="0%" style="stop-color:rgb(100,32,255);stop-opacity: 1"/>
<stop offset="100%" style="stop-color:rgb(100,32,255);stop-opacity: 0"/>
</radialGradient>
<circle style="stroke: none; stroke-width: 1; stroke-dasharray: none; stroke-linecap: butt; stroke-dashoffset: 0; stroke-linejoin: miter; stroke-miterlimit: 4; fill: url(#SVGID_a_3); fill-rule: nonzero; opacity: 1;" vector-effect="non-scaling-stroke"  cx="0" cy="0" r="950" />
</g>
		<g transform="matrix(1 0 0 1 0 0)"  >
<radialGradient id="SVGID_b_4" gradientUnits="userSpaceOnUse" gradientTransform="matrix(957.51 1352.49 -1352.49 957.51 -447 -734)"  cx="0" cy="0" r="1" fx="0" fy="0">
<stop offset="0%" style="stop-color:rgb(0,196,204);stop-opacity: 1"/>
<stop offset="100%" style="stop-color:rgb(0,196,204);stop-opacity: 0"/>
</radialGradient>
<circle style="stroke: none; stroke-width: 1; stroke-dasharray: none; stroke-linecap: butt; stroke-dashoffset: 0; stroke-linejoin: miter; stroke-miterlimit: 4; fill: url(#SVGID_b_4); fill-rule: nonzero; opacity: 1;" vector-effect="non-scaling-stroke"  cx="0" cy="0" r="950" />
</g>
		<g transform="matrix(1 0 0 1 0 0)"  >
<radialGradient id="SVGID_c_5" gradientUnits="userSpaceOnUse" gradientTransform="matrix(1023 -1030 473.71 470.49 -583 734)"  cx="0" cy="0" r="1" fx="0" fy="0">
<stop offset="0%" style="stop-color:rgb(100,32,255);stop-opacity: 1"/>
<stop offset="100%" style="stop-color:rgb(100,32,255);stop-opacity: 0"/>
</radialGradient>
<circle style="stroke: none; stroke-width: 1; stroke-dasharray: none; stroke-linecap: butt; stroke-dashoffset: 0; stroke-linejoin: miter; stroke-miterlimit: 4; fill: url(#SVGID_c_5); fill-rule: nonzero; opacity: 1;" vector-effect="non-scaling-stroke"  cx="0" cy="0" r="950" />
</g>
		<g transform="matrix(1 0 0 1 0 0)"  >
<radialGradient id="SVGID_d_6" gradientUnits="userSpaceOnUse" gradientTransform="matrix(596 1372 -2298.41 998.43 -173 -694)"  cx="0" cy="0" r="1" fx="0" fy="0">
<stop offset="0%" style="stop-color:rgb(0,196,204);stop-opacity: 0.725916"/>
<stop offset="0.01%" style="stop-color:rgb(0,196,204);stop-opacity: 1"/>
<stop offset="100%" style="stop-color:rgb(0,196,204);stop-opacity: 0"/>
</radialGradient>
<circle style="stroke: none; stroke-width: 1; stroke-dasharray: none; stroke-linecap: butt; stroke-dashoffset: 0; stroke-linejoin: miter; stroke-miterlimit: 4; fill: url(#SVGID_d_6); fill-rule: nonzero; opacity: 1;" vector-effect="non-scaling-stroke"  cx="0" cy="0" r="950" />
</g>
		<g transform="matrix(1 0 0 1 -33.03 -0.06)"  >
<path style="stroke: none; stroke-width: 1; stroke-dasharray: none; stroke-linecap: butt; stroke-dashoffset: 0; stroke-linejoin: miter; stroke-miterlimit: 4; fill: rgb(255,255,255); fill-rule: nonzero; opacity: 1;" vector-effect="non-scaling-stroke"  transform=" translate(-916.97, -949.94)" d="M 1360.14 1144.88 C 1352.3000000000002 1144.88 1345.4 1151.5 1338.22 1165.96 C 1257.14 1330.3700000000001 1117.1 1446.7 955.046 1446.7 C 767.666 1446.7 651.6270000000001 1277.55 651.6270000000001 1043.8700000000001 C 651.6270000000001 648.0360000000001 872.1750000000001 419.1730000000001 1065.89 419.1730000000001 C 1156.41 419.1730000000001 1211.69 476.0580000000001 1211.69 566.5830000000001 C 1211.69 674.022 1150.65 730.9070000000002 1150.65 768.7990000000001 C 1150.65 785.8080000000001 1161.23 796.1070000000001 1182.21 796.1070000000001 C 1266.5 796.1070000000001 1365.43 699.2520000000001 1365.43 562.4250000000001 C 1365.43 429.7560000000001 1249.96 332.23900000000003 1056.25 332.23900000000003 C 736.105 332.23900000000003 451.58500000000004 629.043 451.58500000000004 1039.71 C 451.58500000000004 1357.5900000000001 633.107 1567.65 913.186 1567.65 C 1210.46 1567.65 1382.35 1271.88 1382.35 1175.88 C 1382.35 1154.6200000000001 1371.48 1144.88 1360.1399999999999 1144.88 Z" stroke-linecap="round" />
</g>
</g>
</g>
</svg>