<?xml version="1.0" encoding="UTF-8" standalone="no" ?>
<!DOCTYPE svg PUBLIC "-//W3C//DTD SVG 1.1//EN" "http://www.w3.org/Graphics/SVG/1.1/DTD/svg11.dtd">
<svg xmlns="http://www.w3.org/2000/svg" xmlns:xlink="http://www.w3.org/1999/xlink" version="1.1" width="1080" height="1080" viewBox="0 0 1080 1080" xml:space="preserve">
<desc>Created with Fabric.js 5.2.4</desc>
<defs>
</defs>
<g transform="matrix(1 0 0 1 540 540)" id="04bd87df-a434-4c03-ab94-88c7dc0a2b83"  >
<rect style="stroke: none; stroke-width: 1; stroke-dasharray: none; stroke-linecap: butt; stroke-dashoffset: 0; stroke-linejoin: miter; stroke-miterlimit: 4; fill: rgb(255,255,255); fill-rule: nonzero; opacity: 1; visibility: hidden;" vector-effect="non-scaling-stroke"  x="-540" y="-540" rx="0" ry="0" width="1080" height="1080" />
</g>
<g transform="matrix(1 0 0 1 540 540)" id="c7aa8b45-19d3-447e-974b-5d2ef385634d"  >
</g>
<g transform="matrix(2.22 0 0 2.22 540 540)"  >
<path style="stroke: none; stroke-width: 1; stroke-dasharray: none; stroke-linecap: butt; stroke-dashoffset: 0; stroke-linejoin: miter; stroke-miterlimit: 4; fill: rgb(38,77,228); fill-rule: nonzero; opacity: 1;" vector-effect="non-scaling-stroke"  transform=" translate(-128, -215.43)" d="M 127.843868 360.087912 L 23.6617143 331.166242 L 0.445186813 70.7657143 L 255.554813 70.7657143 L 232.31367 331.125451 L 127.843868 360.087912 L 127.843868 360.087912 Z" stroke-linecap="round" />
</g>
<g transform="matrix(2.22 0 0 2.22 655.54 539.06)"  >
<path style="stroke: none; stroke-width: 1; stroke-dasharray: none; stroke-linecap: butt; stroke-dashoffset: 0; stroke-linejoin: miter; stroke-miterlimit: 4; fill: rgb(41,101,241); fill-rule: nonzero; opacity: 1;" vector-effect="non-scaling-stroke"  transform=" translate(-180.14, -215)" d="M 212.416703 314.546637 L 232.277802 92.0573187 L 128 92.0573187 L 128 337.950242 L 212.416703 314.546637 L 212.416703 314.546637 Z" stroke-linecap="round" />
</g>
<g transform="matrix(2.22 0 0 2.22 457.64 516.02)"  >
<path style="stroke: none; stroke-width: 1; stroke-dasharray: none; stroke-linecap: butt; stroke-dashoffset: 0; stroke-linejoin: miter; stroke-miterlimit: 4; fill: rgb(235,235,235); fill-rule: nonzero; opacity: 1;" vector-effect="non-scaling-stroke"  transform=" translate(-90.83, -204.6)" d="M 53.6685714 188.636132 L 56.530989 220.572835 L 128 220.572835 L 128 188.636132 L 53.6685714 188.636132 L 53.6685714 188.636132 Z" stroke-linecap="round" />
</g>
<g transform="matrix(2.22 0 0 2.22 451.27 372.77)"  >
<path style="stroke: none; stroke-width: 1; stroke-dasharray: none; stroke-linecap: butt; stroke-dashoffset: 0; stroke-linejoin: miter; stroke-miterlimit: 4; fill: rgb(235,235,235); fill-rule: nonzero; opacity: 1;" vector-effect="non-scaling-stroke"  transform=" translate(-87.96, -139.96)" d="M 47.917011 123.994725 L 50.8202198 155.932132 L 128 155.932132 L 128 123.994725 L 47.917011 123.994725 L 47.917011 123.994725 Z" stroke-linecap="round" />
</g>
<g transform="matrix(2.22 0 0 2.22 462.39 662.48)"  >
<path style="stroke: none; stroke-width: 1; stroke-dasharray: none; stroke-linecap: butt; stroke-dashoffset: 0; stroke-linejoin: miter; stroke-miterlimit: 4; fill: rgb(235,235,235); fill-rule: nonzero; opacity: 1;" vector-effect="non-scaling-stroke"  transform=" translate(-92.98, -270.7)" d="M 128 271.580132 L 127.860044 271.617407 L 92.2915165 262.013187 L 90.0177582 236.54189 L 57.957978 236.54189 L 62.4323516 286.687648 L 127.853011 304.848879 L 128 304.808088 L 128 271.580132 L 128 271.580132 Z" stroke-linecap="round" />
</g>
<g transform="matrix(2.22 0 0 2.22 628.4 537.76)"  >
<path style="stroke: none; stroke-width: 1; stroke-dasharray: none; stroke-linecap: butt; stroke-dashoffset: 0; stroke-linejoin: miter; stroke-miterlimit: 4; fill: rgb(255,255,255); fill-rule: nonzero; opacity: 1;" vector-effect="non-scaling-stroke"  transform=" translate(-167.89, -214.41)" d="M 202.126769 188.636132 L 207.892396 123.994725 L 127.889582 123.994725 L 127.889582 155.932132 L 172.892132 155.932132 L 169.98611 188.636132 L 127.889582 188.636132 L 127.889582 220.572835 L 167.216527 220.572835 L 163.509451 261.992791 L 127.889582 271.606857 L 127.889582 304.833407 L 193.362286 286.687648 L 193.842637 281.291956 L 201.347516 197.212132 L 202.126769 188.636132 L 202.126769 188.636132 Z" stroke-linecap="round" />
</g>
</svg>