<?xml version="1.0" encoding="UTF-8" standalone="no" ?>
<!DOCTYPE svg PUBLIC "-//W3C//DTD SVG 1.1//EN" "http://www.w3.org/Graphics/SVG/1.1/DTD/svg11.dtd">
<svg xmlns="http://www.w3.org/2000/svg" xmlns:xlink="http://www.w3.org/1999/xlink" version="1.1" width="1080" height="1080" viewBox="0 0 1080 1080" xml:space="preserve">
<desc>Created with Fabric.js 5.2.4</desc>
<defs>
</defs>
<g transform="matrix(1 0 0 1 540 540)" id="43446aa3-6838-4b1a-88ce-5c6cba61c7e7"  >
<rect style="stroke: none; stroke-width: 1; stroke-dasharray: none; stroke-linecap: butt; stroke-dashoffset: 0; stroke-linejoin: miter; stroke-miterlimit: 4; fill: rgb(255,255,255); fill-rule: nonzero; opacity: 1; visibility: hidden;" vector-effect="non-scaling-stroke"  x="-540" y="-540" rx="0" ry="0" width="1080" height="1080" />
</g>
<g transform="matrix(1 0 0 1 540 540)" id="ffda6729-38e5-4d22-9bc7-a44cef0c8c66"  >
</g>
<g transform="matrix(1 0 0 1 540 540)"  >
<g style="" vector-effect="non-scaling-stroke"   >
		<g transform="matrix(25 0 0 25 100 0)"  >
<path style="stroke: none; stroke-width: 1; stroke-dasharray: none; stroke-linecap: butt; stroke-dashoffset: 0; stroke-linejoin: miter; stroke-miterlimit: 4; fill: rgb(26,188,254); fill-rule: evenodd; opacity: 1;" vector-effect="non-scaling-stroke"  transform=" translate(-20, -16)" d="M 16 16 C 16 13.7909 17.7909 12 20 12 C 22.2091 12 24 13.7909 24 16 C 24 18.2091 22.2091 20 20 20 C 17.7909 20 16 18.2091 16 16 Z" stroke-linecap="round" />
</g>
		<g transform="matrix(25 0 0 25 -100 200)"  >
<path style="stroke: none; stroke-width: 1; stroke-dasharray: none; stroke-linecap: butt; stroke-dashoffset: 0; stroke-linejoin: miter; stroke-miterlimit: 4; fill: rgb(10,207,131); fill-rule: evenodd; opacity: 1;" vector-effect="non-scaling-stroke"  transform=" translate(-12, -24)" d="M 8 24 C 8 21.7909 9.79086 20 12 20 L 16 20 L 16 24 C 16 26.2091 14.2091 28 12 28 C 9.79086 28 8 26.2091 8 24 Z" stroke-linecap="round" />
</g>
		<g transform="matrix(25 0 0 25 100 -200)"  >
<path style="stroke: none; stroke-width: 1; stroke-dasharray: none; stroke-linecap: butt; stroke-dashoffset: 0; stroke-linejoin: miter; stroke-miterlimit: 4; fill: rgb(255,114,98); fill-rule: evenodd; opacity: 1;" vector-effect="non-scaling-stroke"  transform=" translate(-20, -8)" d="M 16 4 L 16 12 L 20 12 C 22.2091 12 24 10.2091 24 8 C 24 5.79086 22.2091 4 20 4 L 16 4 Z" stroke-linecap="round" />
</g>
		<g transform="matrix(25 0 0 25 -100 -200)"  >
<path style="stroke: none; stroke-width: 1; stroke-dasharray: none; stroke-linecap: butt; stroke-dashoffset: 0; stroke-linejoin: miter; stroke-miterlimit: 4; fill: rgb(242,78,30); fill-rule: evenodd; opacity: 1;" vector-effect="non-scaling-stroke"  transform=" translate(-12, -8)" d="M 8 8 C 8 10.2091 9.79086 12 12 12 L 16 12 L 16 4 L 12 4 C 9.79086 4 8 5.79086 8 8 Z" stroke-linecap="round" />
</g>
		<g transform="matrix(25 0 0 25 -100 0)"  >
<path style="stroke: none; stroke-width: 1; stroke-dasharray: none; stroke-linecap: butt; stroke-dashoffset: 0; stroke-linejoin: miter; stroke-miterlimit: 4; fill: rgb(162,89,255); fill-rule: evenodd; opacity: 1;" vector-effect="non-scaling-stroke"  transform=" translate(-12, -16)" d="M 8 16 C 8 18.2091 9.79086 20 12 20 L 16 20 L 16 12 L 12 12 C 9.79086 12 8 13.7909 8 16 Z" stroke-linecap="round" />
</g>
</g>
</g>
</svg>