<?xml version="1.0" encoding="UTF-8" standalone="no" ?>
<!DOCTYPE svg PUBLIC "-//W3C//DTD SVG 1.1//EN" "http://www.w3.org/Graphics/SVG/1.1/DTD/svg11.dtd">
<svg xmlns="http://www.w3.org/2000/svg" xmlns:xlink="http://www.w3.org/1999/xlink" version="1.1" width="1080" height="1080" viewBox="0 0 1080 1080" xml:space="preserve">
<desc>Created with Fabric.js 5.2.4</desc>
<defs>
</defs>
<g transform="matrix(1 0 0 1 540 540)" id="d2f57c4b-9c29-451c-88eb-3e76e2087e42"  >
<rect style="stroke: none; stroke-width: 1; stroke-dasharray: none; stroke-linecap: butt; stroke-dashoffset: 0; stroke-linejoin: miter; stroke-miterlimit: 4; fill: rgb(255,255,255); fill-rule: nonzero; opacity: 1; visibility: hidden;" vector-effect="non-scaling-stroke"  x="-540" y="-540" rx="0" ry="0" width="1080" height="1080" />
</g>
<g transform="matrix(1 0 0 1 540 540)" id="906fdce9-dda8-4d6f-9ece-f3a469cc2fe5"  >
</g>
<g transform="matrix(1 0 0 1 540 540)"  >
<g style="" vector-effect="non-scaling-stroke"   >
		<g transform="matrix(25 0 0 25 0 0)"  >
<path style="stroke: none; stroke-width: 1; stroke-dasharray: none; stroke-linecap: butt; stroke-dashoffset: 0; stroke-linejoin: miter; stroke-miterlimit: 4; fill: rgb(12,8,36); fill-rule: nonzero; opacity: 1;" vector-effect="non-scaling-stroke"  transform=" translate(-16, -16)" d="M 3.167 3.517 L 28.833 3.517 L 28.833 28.483 L 3.167 28.483 Z" stroke-linecap="round" />
</g>
		<g transform="matrix(25 0 0 25 0 0)"  >
<path style="stroke: none; stroke-width: 1; stroke-dasharray: none; stroke-linecap: butt; stroke-dashoffset: 0; stroke-linejoin: miter; stroke-miterlimit: 4; fill: rgb(49,197,240); fill-rule: nonzero; opacity: 1;" vector-effect="non-scaling-stroke"  transform=" translate(-16, -16)" d="M 3.167 3.517 L 28.833 3.517 L 28.833 28.483 L 3.167 28.483 Z M 2 29.65 L 30 29.65 L 30 2.35 L 2 2.35 Z M 20.877 13.549999999999997 C 19.955 13.549999999999997 19.64 14.016999999999998 19.64 14.401999999999997 C 19.64 14.821999999999997 19.85 15.113999999999997 21.087 15.754999999999997 C 22.919 16.641999999999996 23.487 17.493 23.487 18.741999999999997 C 23.487 20.608999999999998 22.064 21.612 20.139 21.612 C 19.312846521660976 21.64261085639952 18.49171924029797 21.470970538388862 17.747 21.112 C 17.665 21.076999999999998 17.654 21.019 17.654 20.924999999999997 L 17.654 19.208 C 17.654 19.090999999999998 17.712 19.055999999999997 17.794 19.115 C 18.49339197642117 19.564737400541954 19.30748780902033 19.803585133091303 20.139 19.802999999999997 C 21.061 19.802999999999997 21.445999999999998 19.417999999999996 21.445999999999998 18.892999999999997 C 21.445999999999998 18.472999999999995 21.177999999999997 18.099999999999998 19.999 17.493 C 18.342 16.7 17.654 15.892999999999999 17.654 14.552999999999999 C 17.654 13.047999999999998 18.832 11.799999999999999 20.874 11.799999999999999 C 21.584797039976074 11.76947706435851 22.29456639611748 11.880633472145025 22.962000000000003 12.127 C 23.040261550797243 12.177797522631918 23.08499953563551 12.26689111636966 23.079 12.36 L 23.079 13.959999999999999 C 23.079 14.052999999999999 23.021 14.111999999999998 22.904 14.077 C 22.28715629800471 13.721899560560564 21.585659834267997 13.54047806131831 20.874 13.552 Z M 10.843 14.938 C 11.111 14.961 11.321 14.961 11.788 14.961 C 13.153 14.961 14.436 14.483 14.436 12.628 C 14.436 11.146 13.514 10.4 11.963000000000001 10.4 C 11.496 10.4 11.053 10.423 10.843 10.435 Z M 8.766 8.738 C 8.766 8.655999999999999 8.929 8.597999999999999 9.023 8.597999999999999 C 9.77 8.562999999999999 10.878 8.54 12.033 8.54 C 15.265 8.54 16.525 10.312999999999999 16.525 12.576999999999998 C 16.525 15.54 14.377999999999998 16.811999999999998 11.741999999999997 16.811999999999998 C 11.298999999999998 16.811999999999998 11.146999999999997 16.788999999999998 10.831999999999997 16.788999999999998 L 10.831999999999997 21.269 C 10.831999999999997 21.362 10.796999999999997 21.409 10.691999999999997 21.409 L 8.907 21.409 C 8.814 21.409 8.767 21.374 8.767 21.269 L 8.767 8.743 Z" stroke-linecap="round" />
</g>
</g>
</g>
</svg>